<?xml version="1.0" standalone="no"?><!DOCTYPE svg PUBLIC "-//W3C//DTD SVG 1.1//EN" "http://www.w3.org/Graphics/SVG/1.1/DTD/svg11.dtd"><svg t="1552912561960" class="icon" style="" viewBox="0 0 1024 1024" version="1.1" xmlns="http://www.w3.org/2000/svg" p-id="3104" xmlns:xlink="http://www.w3.org/1999/xlink" width="200" height="200"><defs><style type="text/css"></style></defs><path d="M245 278.9c-28.4 32.2-52.1 68.6-67.2 109-22.3 59.5-28 124.8-16.7 187.3 11.5 63.5 40.6 123.2 83.5 171.4 9.4 10.5 19.4 20.5 30 29.9C420.7 905.7 643.9 892 773 745.8s115.5-369.3-30.7-498.4c-12-10.6-24.5-20.1-37.5-28.8-8.6-8.8-13.9-20.9-13.7-34.4 0.5-27 22.8-48.8 49.9-48.8 7.3 0 14.2 1.7 20.4 4.6 15.5 10.6 30.6 22.1 45 34.9 186.2 164.6 203.7 449 39.1 635.2-164.5 186-448.8 203.5-635 38.9S6.8 400 171.4 213.8c26.4-29.8 55.8-55.3 87.5-76.4 6.3-2.5 13.1-3.8 20.3-3.5 27 1.1 47.5 23.9 45.9 50.9-0.9 14.4-7.9 27.1-18.4 35.6-22 17.7-42.9 37.2-61.7 58.5z" fill="#669CE3" p-id="3105"></path><path d="M508.5 476.9c-29.1 0-52.8-23.8-52.8-52.8V89.4c0-29.1 23.8-52.8 52.8-52.8 29.1 0 52.8 23.8 52.8 52.8V424c0.1 29.1-23.7 52.9-52.8 52.9z" fill="#669CE3" p-id="3106"></path></svg>